<svg width="143" height="161" viewBox="0 0 143 161" fill="none" xmlns="http://www.w3.org/2000/svg">
<g clip-path="url(#clip0_1205_3345)">
<path d="M45.6961 142.28C46.3407 141.05 47.3434 139.138 48.4893 136.952C56.6705 121.176 59.9693 103.322 57.965 85.6656C54.3752 72.862 46.0557 61.9016 34.6903 55.0026C47.4264 56.8182 60.4078 55.7699 72.6889 51.9342C87.5954 47.0611 100.871 38.1718 111.056 26.2438C106.049 33.7409 102.614 42.1762 100.961 51.0385C99.3075 59.9009 99.4695 69.0062 101.437 77.8034C103.724 85.3841 107.478 92.4412 112.486 98.5739C102.953 97.3956 93.2765 98.5362 84.2778 101.898C75.3564 105.516 67.304 110.986 60.653 117.947C54.0021 124.908 48.9041 133.202 45.6961 142.28Z" fill="#5E89ED"/>
</g>
<defs>
<clipPath id="clip0_1205_3345">
<rect width="91.2911" height="133.426" fill="white" transform="translate(62.1055 0.0537109) rotate(27.6661)"/>
</clipPath>
</defs>
</svg>
