<svg width="36" height="36" viewBox="0 0 36 36" fill="none" xmlns="http://www.w3.org/2000/svg">
<g clip-path="url(#clip0_1128_4092)">
<path d="M35.9996 17.9326C36.0263 21.5116 34.9894 25.0178 33.0204 28.0067C31.0514 30.9956 28.239 33.3323 24.9401 34.7205C21.6411 36.1087 18.0043 36.4857 14.4907 35.8039C10.9772 35.1221 7.74521 33.412 5.20493 30.8907C2.66465 28.3694 0.930533 25.1504 0.2224 21.642C-0.485734 18.1337 -0.135903 14.494 1.22753 11.1848C2.59095 7.87551 4.90651 5.04577 7.88053 3.05447C10.8546 1.06317 14.353 9.96719e-05 17.9321 7.01492e-09C22.7006 -0.000132778 27.2758 1.88483 30.6603 5.24402C34.0447 8.60321 35.964 13.1642 35.9996 17.9326Z" fill="#5E89ED"/>
</g>
<defs>
<clipPath id="clip0_1128_4092">
<rect width="36" height="36" fill="white"/>
</clipPath>
</defs>
</svg>
